G04 #@! TF.GenerationSoftware,KiCad,Pcbnew,(5.1.4)-1*
G04 #@! TF.CreationDate,2021-12-17T00:30:14+09:00*
G04 #@! TF.ProjectId,ident_card,6964656e-745f-4636-9172-642e6b696361,rev?*
G04 #@! TF.SameCoordinates,Original*
G04 #@! TF.FileFunction,Profile,NP*
%FSLAX46Y46*%
G04 Gerber Fmt 4.6, Leading zero omitted, Abs format (unit mm)*
G04 Created by KiCad (PCBNEW (5.1.4)-1) date 2021-12-17 00:30:14*
%MOMM*%
%LPD*%
G04 APERTURE LIST*
%ADD10C,0.050000*%
G04 APERTURE END LIST*
D10*
X78105000Y-24765000D02*
X78105000Y-49530000D01*
X78105000Y-55880000D02*
X78105000Y-80645000D01*
X78105000Y-86995000D02*
X78105000Y-111760000D01*
X128270000Y-24765000D02*
G75*
G02X130810000Y-22225000I2540000J0D01*
G01*
X78105000Y-24765000D02*
G75*
G02X80645000Y-22225000I2540000J0D01*
G01*
X78105000Y-55880000D02*
G75*
G02X80645000Y-53340000I2540000J0D01*
G01*
X78105000Y-86995000D02*
G75*
G02X80645000Y-84455000I2540000J0D01*
G01*
X80645000Y-83185000D02*
G75*
G02X80645000Y-84455000I0J-635000D01*
G01*
X80645000Y-52070000D02*
G75*
G02X80645000Y-53340000I0J-635000D01*
G01*
X128270000Y-24765000D02*
G75*
G02X127000000Y-24765000I-635000J0D01*
G01*
X174625000Y-53340000D02*
G75*
G02X174625000Y-52070000I0J635000D01*
G01*
X124460000Y-22225000D02*
G75*
G02X127000000Y-24765000I0J-2540000D01*
G01*
X80645000Y-52070000D02*
G75*
G02X78105000Y-49530000I0J2540000D01*
G01*
X124460000Y-22225000D02*
X80645000Y-22225000D01*
X80645000Y-83185000D02*
G75*
G02X78105000Y-80645000I0J2540000D01*
G01*
X80645000Y-114300000D02*
G75*
G02X78105000Y-111760000I0J2540000D01*
G01*
X127000000Y-111760000D02*
G75*
G02X124460000Y-114300000I-2540000J0D01*
G01*
X124460000Y-114300000D02*
X80645000Y-114300000D01*
X174625000Y-22225000D02*
G75*
G02X177165000Y-24765000I0J-2540000D01*
G01*
X177165000Y-24765000D02*
X177165000Y-49530000D01*
X177165000Y-49530000D02*
G75*
G02X174625000Y-52070000I-2540000J0D01*
G01*
X174625000Y-22225000D02*
X130810000Y-22225000D01*
X174625000Y-53340000D02*
G75*
G02X177165000Y-55880000I0J-2540000D01*
G01*
X177165000Y-55880000D02*
X177165000Y-80645000D01*
X177165000Y-80645000D02*
G75*
G02X174625000Y-83185000I-2540000J0D01*
G01*
X127000000Y-111760000D02*
G75*
G02X128270000Y-111760000I635000J0D01*
G01*
X174625000Y-84455000D02*
G75*
G02X174625000Y-83185000I0J635000D01*
G01*
X174625000Y-114300000D02*
X130810000Y-114300000D01*
X177165000Y-86995000D02*
X177165000Y-111760000D01*
X130810000Y-114300000D02*
G75*
G02X128270000Y-111760000I0J2540000D01*
G01*
X174625000Y-84455000D02*
G75*
G02X177165000Y-86995000I0J-2540000D01*
G01*
X177165000Y-111760000D02*
G75*
G02X174625000Y-114300000I-2540000J0D01*
G01*
M02*
