M48
; DRILL file {KiCad (5.1.4)-1} date 2021/12/17 0:30:16
; FORMAT={-:-/ absolute / inch / decimal}
; #@! TF.CreationDate,2021-12-17T00:30:16+09:00
; #@! TF.GenerationSoftware,Kicad,Pcbnew,(5.1.4)-1
; #@! TF.FileFunction,Plated,1,2,PTH
FMAT,2
INCH
T1C0.0157
T2C0.0236
T3C0.0315
T4C0.0374
%
G90
G05
T1
X3.115Y-1.58
X3.115Y-2.805
X3.115Y-4.03
X3.1568Y-1.6224
X3.1568Y-2.8474
X3.1568Y-4.0724
X3.185Y-1.9
X3.185Y-3.125
X3.185Y-4.35
X3.205Y-2.0
X3.205Y-3.225
X3.205Y-4.45
X3.2342Y-1.8271
X3.2342Y-3.0521
X3.2342Y-4.2771
X3.235Y-1.27
X3.235Y-2.495
X3.235Y-3.72
X3.2353Y-1.6659
X3.2353Y-2.8909
X3.2353Y-4.1159
X3.265Y-1.42
X3.265Y-1.54
X3.265Y-1.9
X3.265Y-2.645
X3.265Y-2.765
X3.265Y-3.125
X3.265Y-3.87
X3.265Y-3.99
X3.265Y-4.35
X3.2741Y-1.6728
X3.2741Y-2.8978
X3.2741Y-4.1228
X3.275Y-1.62
X3.275Y-2.845
X3.275Y-4.07
X3.2771Y-1.8171
X3.2771Y-3.0421
X3.2771Y-4.2671
X3.2778Y-1.7476
X3.2778Y-2.9726
X3.2778Y-4.1976
X3.315Y-1.88
X3.315Y-3.105
X3.315Y-4.33
X3.325Y-1.45
X3.325Y-2.675
X3.325Y-3.9
X3.355Y-1.5
X3.355Y-2.0
X3.355Y-2.725
X3.355Y-3.225
X3.355Y-3.95
X3.355Y-4.45
X3.3571Y-1.7385
X3.3571Y-1.8331
X3.3571Y-2.9635
X3.3571Y-3.0581
X3.3571Y-4.1885
X3.3571Y-4.2831
X3.375Y-1.4
X3.375Y-2.625
X3.375Y-3.85
X3.415Y-1.64
X3.415Y-2.865
X3.415Y-4.09
X3.425Y-1.42
X3.425Y-2.645
X3.425Y-3.87
X3.435Y-1.36
X3.435Y-2.585
X3.435Y-3.81
X3.465Y-1.65
X3.465Y-2.875
X3.465Y-4.1
X3.505Y-1.51
X3.505Y-2.735
X3.505Y-3.96
X3.525Y-1.61
X3.525Y-2.835
X3.525Y-4.06
X3.575Y-1.94
X3.575Y-3.165
X3.575Y-4.39
X3.6002Y-1.3848
X3.6002Y-2.6098
X3.6002Y-3.8348
X3.675Y-1.98
X3.675Y-3.205
X3.675Y-4.43
X3.725Y-1.45
X3.725Y-2.675
X3.725Y-3.9
X3.7348Y-2.0102
X3.7348Y-3.2352
X3.7348Y-4.4602
X3.745Y-1.54
X3.745Y-1.63
X3.745Y-2.765
X3.745Y-2.855
X3.745Y-3.99
X3.745Y-4.08
X3.765Y-1.75
X3.765Y-2.975
X3.765Y-4.2
X3.7926Y-1.5889
X3.7926Y-2.8139
X3.7926Y-4.0389
X3.8138Y-1.8973
X3.8138Y-3.1223
X3.8138Y-4.3473
X3.815Y-1.46
X3.815Y-2.685
X3.815Y-3.91
X3.845Y-1.39
X3.845Y-1.43
X3.845Y-2.615
X3.845Y-2.655
X3.845Y-3.84
X3.845Y-3.88
X3.8548Y-1.9698
X3.8548Y-3.1948
X3.8548Y-4.4198
X3.8687Y-1.7548
X3.8687Y-2.9798
X3.8687Y-4.2048
X3.885Y-2.0254
X3.885Y-3.2504
X3.885Y-4.4754
X3.9063Y-1.85
X3.9063Y-3.075
X3.9063Y-4.3
X3.915Y-1.71
X3.915Y-2.935
X3.915Y-4.16
X3.955Y-1.88
X3.955Y-3.105
X3.955Y-4.33
X3.9568Y-1.8189
X3.9568Y-3.0439
X3.9568Y-4.2689
X4.005Y-1.72
X4.005Y-2.945
X4.005Y-4.17
X4.0066Y-1.62
X4.0066Y-2.845
X4.0066Y-4.07
X4.015Y-1.54
X4.015Y-2.765
X4.015Y-3.99
X4.0435Y-1.6612
X4.0435Y-2.8862
X4.0435Y-4.1112
X4.085Y-1.44
X4.085Y-2.665
X4.085Y-3.89
X4.1Y-1.325
X4.1Y-2.55
X4.1Y-3.775
X4.115Y-1.52
X4.115Y-2.745
X4.115Y-3.97
X4.175Y-1.325
X4.175Y-1.42
X4.175Y-1.475
X4.175Y-2.55
X4.175Y-2.645
X4.175Y-2.7
X4.175Y-3.775
X4.175Y-3.87
X4.175Y-3.925
X4.225Y-1.7
X4.225Y-2.925
X4.225Y-4.15
X4.245Y-1.32
X4.245Y-2.545
X4.245Y-3.77
X4.25Y-1.375
X4.25Y-2.6
X4.25Y-3.825
X4.35Y-1.275
X4.35Y-1.875
X4.35Y-2.5
X4.35Y-3.1
X4.35Y-3.725
X4.35Y-4.325
X4.365Y-1.79
X4.365Y-3.015
X4.365Y-4.24
X4.3803Y-1.9447
X4.3803Y-3.1697
X4.3803Y-4.3947
X4.415Y-1.9
X4.415Y-3.125
X4.415Y-4.35
X4.425Y-1.775
X4.425Y-3.0
X4.425Y-4.225
X4.45Y-1.175
X4.45Y-2.4
X4.45Y-3.625
X4.4592Y-1.6031
X4.4592Y-2.8281
X4.4592Y-4.0531
X4.465Y-1.54
X4.465Y-2.765
X4.465Y-3.99
X4.475Y-1.725
X4.475Y-2.025
X4.475Y-2.95
X4.475Y-3.25
X4.475Y-4.175
X4.475Y-4.475
X4.485Y-1.92
X4.485Y-3.145
X4.485Y-4.37
X4.525Y-1.775
X4.525Y-3.0
X4.525Y-4.225
X4.5333Y-1.9173
X4.5333Y-3.1423
X4.5333Y-4.3673
X4.575Y-1.425
X4.575Y-1.6
X4.575Y-1.8425
X4.575Y-2.65
X4.575Y-2.825
X4.575Y-3.0675
X4.575Y-3.875
X4.575Y-4.05
X4.575Y-4.2925
X4.625Y-1.95
X4.625Y-2.025
X4.625Y-3.175
X4.625Y-3.25
X4.625Y-4.4
X4.625Y-4.475
X4.6803Y-1.9154
X4.6803Y-3.1404
X4.6803Y-4.3654
X4.725Y-1.1
X4.725Y-2.325
X4.725Y-3.55
X4.75Y-1.0
X4.75Y-1.2
X4.75Y-1.3
X4.75Y-2.225
X4.75Y-2.425
X4.75Y-2.525
X4.75Y-3.45
X4.75Y-3.65
X4.75Y-3.75
X4.775Y-1.95
X4.775Y-2.025
X4.775Y-3.175
X4.775Y-3.25
X4.775Y-4.4
X4.775Y-4.475
X4.825Y-0.96
X4.825Y-1.05
X4.825Y-1.75
X4.825Y-1.825
X4.825Y-2.185
X4.825Y-2.275
X4.825Y-2.975
X4.825Y-3.05
X4.825Y-3.41
X4.825Y-3.5
X4.825Y-4.2
X4.825Y-4.275
X4.8289Y-1.15
X4.8289Y-1.25
X4.8289Y-1.35
X4.8289Y-1.45
X4.8289Y-1.55
X4.8289Y-1.65
X4.8289Y-2.375
X4.8289Y-2.475
X4.8289Y-2.575
X4.8289Y-2.675
X4.8289Y-2.775
X4.8289Y-2.875
X4.8289Y-3.6
X4.8289Y-3.7
X4.8289Y-3.8
X4.8289Y-3.9
X4.8289Y-4.0
X4.8289Y-4.1
X4.8303Y-1.9222
X4.8303Y-3.1472
X4.8303Y-4.3722
X4.85Y-1.1
X4.85Y-1.2
X4.85Y-1.3
X4.85Y-1.4
X4.85Y-1.5
X4.85Y-1.6
X4.85Y-1.7
X4.85Y-2.325
X4.85Y-2.425
X4.85Y-2.525
X4.85Y-2.625
X4.85Y-2.725
X4.85Y-2.825
X4.85Y-2.925
X4.85Y-3.55
X4.85Y-3.65
X4.85Y-3.75
X4.85Y-3.85
X4.85Y-3.95
X4.85Y-4.05
X4.85Y-4.15
X4.95Y-1.95
X4.95Y-3.175
X4.95Y-4.4
X5.09Y-1.58
X5.09Y-2.805
X5.09Y-4.03
X5.1318Y-1.6224
X5.1318Y-2.8474
X5.1318Y-4.0724
X5.16Y-1.9
X5.16Y-3.125
X5.16Y-4.35
X5.18Y-2.0
X5.18Y-3.225
X5.18Y-4.45
X5.2092Y-1.8271
X5.2092Y-3.0521
X5.2092Y-4.2771
X5.21Y-1.27
X5.21Y-2.495
X5.21Y-3.72
X5.2103Y-1.6659
X5.2103Y-2.8909
X5.2103Y-4.1159
X5.24Y-1.42
X5.24Y-1.54
X5.24Y-1.9
X5.24Y-2.645
X5.24Y-2.765
X5.24Y-3.125
X5.24Y-3.87
X5.24Y-3.99
X5.24Y-4.35
X5.2491Y-1.6728
X5.2491Y-2.8978
X5.2491Y-4.1228
X5.25Y-1.62
X5.25Y-2.845
X5.25Y-4.07
X5.2521Y-1.8171
X5.2521Y-3.0421
X5.2521Y-4.2671
X5.2528Y-1.7476
X5.2528Y-2.9726
X5.2528Y-4.1976
X5.29Y-1.88
X5.29Y-3.105
X5.29Y-4.33
X5.3Y-1.45
X5.3Y-2.675
X5.3Y-3.9
X5.33Y-1.5
X5.33Y-2.0
X5.33Y-2.725
X5.33Y-3.225
X5.33Y-3.95
X5.33Y-4.45
X5.3321Y-1.7385
X5.3321Y-1.8331
X5.3321Y-2.9635
X5.3321Y-3.0581
X5.3321Y-4.1885
X5.3321Y-4.2831
X5.35Y-1.4
X5.35Y-2.625
X5.35Y-3.85
X5.39Y-1.64
X5.39Y-2.865
X5.39Y-4.09
X5.4Y-1.42
X5.4Y-2.645
X5.4Y-3.87
X5.41Y-1.36
X5.41Y-2.585
X5.41Y-3.81
X5.44Y-1.65
X5.44Y-2.875
X5.44Y-4.1
X5.48Y-1.51
X5.48Y-2.735
X5.48Y-3.96
X5.5Y-1.61
X5.5Y-2.835
X5.5Y-4.06
X5.55Y-1.94
X5.55Y-3.165
X5.55Y-4.39
X5.5752Y-1.3848
X5.5752Y-2.6098
X5.5752Y-3.8348
X5.65Y-1.98
X5.65Y-3.205
X5.65Y-4.43
X5.7Y-1.45
X5.7Y-2.675
X5.7Y-3.9
X5.7098Y-2.0102
X5.7098Y-3.2352
X5.7098Y-4.4602
X5.72Y-1.54
X5.72Y-1.63
X5.72Y-2.765
X5.72Y-2.855
X5.72Y-3.99
X5.72Y-4.08
X5.74Y-1.75
X5.74Y-2.975
X5.74Y-4.2
X5.7676Y-1.5889
X5.7676Y-2.8139
X5.7676Y-4.0389
X5.7888Y-1.8973
X5.7888Y-3.1223
X5.7888Y-4.3473
X5.79Y-1.46
X5.79Y-2.685
X5.79Y-3.91
X5.82Y-1.39
X5.82Y-1.43
X5.82Y-2.615
X5.82Y-2.655
X5.82Y-3.84
X5.82Y-3.88
X5.8298Y-1.9698
X5.8298Y-3.1948
X5.8298Y-4.4198
X5.8437Y-1.7548
X5.8437Y-2.9798
X5.8437Y-4.2048
X5.86Y-2.0254
X5.86Y-3.2504
X5.86Y-4.4754
X5.8813Y-1.85
X5.8813Y-3.075
X5.8813Y-4.3
X5.89Y-1.71
X5.89Y-2.935
X5.89Y-4.16
X5.93Y-1.88
X5.93Y-3.105
X5.93Y-4.33
X5.9318Y-1.8189
X5.9318Y-3.0439
X5.9318Y-4.2689
X5.98Y-1.72
X5.98Y-2.945
X5.98Y-4.17
X5.9816Y-1.62
X5.9816Y-2.845
X5.9816Y-4.07
X5.99Y-1.54
X5.99Y-2.765
X5.99Y-3.99
X6.0185Y-1.6612
X6.0185Y-2.8862
X6.0185Y-4.1112
X6.06Y-1.44
X6.06Y-2.665
X6.06Y-3.89
X6.075Y-1.325
X6.075Y-2.55
X6.075Y-3.775
X6.09Y-1.52
X6.09Y-2.745
X6.09Y-3.97
X6.15Y-1.325
X6.15Y-1.42
X6.15Y-1.475
X6.15Y-2.55
X6.15Y-2.645
X6.15Y-2.7
X6.15Y-3.775
X6.15Y-3.87
X6.15Y-3.925
X6.2Y-1.7
X6.2Y-2.925
X6.2Y-4.15
X6.22Y-1.32
X6.22Y-2.545
X6.22Y-3.77
X6.225Y-1.375
X6.225Y-2.6
X6.225Y-3.825
X6.325Y-1.275
X6.325Y-1.875
X6.325Y-2.5
X6.325Y-3.1
X6.325Y-3.725
X6.325Y-4.325
X6.34Y-1.79
X6.34Y-3.015
X6.34Y-4.24
X6.3553Y-1.9447
X6.3553Y-3.1697
X6.3553Y-4.3947
X6.39Y-1.9
X6.39Y-3.125
X6.39Y-4.35
X6.4Y-1.775
X6.4Y-3.0
X6.4Y-4.225
X6.425Y-1.175
X6.425Y-2.4
X6.425Y-3.625
X6.4342Y-1.6031
X6.4342Y-2.8281
X6.4342Y-4.0531
X6.44Y-1.54
X6.44Y-2.765
X6.44Y-3.99
X6.45Y-1.725
X6.45Y-2.025
X6.45Y-2.95
X6.45Y-3.25
X6.45Y-4.175
X6.45Y-4.475
X6.46Y-1.92
X6.46Y-3.145
X6.46Y-4.37
X6.5Y-1.775
X6.5Y-3.0
X6.5Y-4.225
X6.5083Y-1.9173
X6.5083Y-3.1423
X6.5083Y-4.3673
X6.55Y-1.425
X6.55Y-1.6
X6.55Y-1.8425
X6.55Y-2.65
X6.55Y-2.825
X6.55Y-3.0675
X6.55Y-3.875
X6.55Y-4.05
X6.55Y-4.2925
X6.6Y-1.95
X6.6Y-2.025
X6.6Y-3.175
X6.6Y-3.25
X6.6Y-4.4
X6.6Y-4.475
X6.6553Y-1.9154
X6.6553Y-3.1404
X6.6553Y-4.3654
X6.7Y-1.1
X6.7Y-2.325
X6.7Y-3.55
X6.725Y-1.0
X6.725Y-1.2
X6.725Y-1.3
X6.725Y-2.225
X6.725Y-2.425
X6.725Y-2.525
X6.725Y-3.45
X6.725Y-3.65
X6.725Y-3.75
X6.75Y-1.95
X6.75Y-2.025
X6.75Y-3.175
X6.75Y-3.25
X6.75Y-4.4
X6.75Y-4.475
X6.8Y-0.96
X6.8Y-1.05
X6.8Y-1.75
X6.8Y-1.825
X6.8Y-2.185
X6.8Y-2.275
X6.8Y-2.975
X6.8Y-3.05
X6.8Y-3.41
X6.8Y-3.5
X6.8Y-4.2
X6.8Y-4.275
X6.8039Y-1.15
X6.8039Y-1.25
X6.8039Y-1.35
X6.8039Y-1.45
X6.8039Y-1.55
X6.8039Y-1.65
X6.8039Y-2.375
X6.8039Y-2.475
X6.8039Y-2.575
X6.8039Y-2.675
X6.8039Y-2.775
X6.8039Y-2.875
X6.8039Y-3.6
X6.8039Y-3.7
X6.8039Y-3.8
X6.8039Y-3.9
X6.8039Y-4.0
X6.8039Y-4.1
X6.8053Y-1.9222
X6.8053Y-3.1472
X6.8053Y-4.3722
X6.825Y-1.1
X6.825Y-1.2
X6.825Y-1.3
X6.825Y-1.4
X6.825Y-1.5
X6.825Y-1.6
X6.825Y-1.7
X6.825Y-2.325
X6.825Y-2.425
X6.825Y-2.525
X6.825Y-2.625
X6.825Y-2.725
X6.825Y-2.825
X6.825Y-2.925
X6.825Y-3.55
X6.825Y-3.65
X6.825Y-3.75
X6.825Y-3.85
X6.825Y-3.95
X6.825Y-4.05
X6.825Y-4.15
X6.925Y-1.95
X6.925Y-3.175
X6.925Y-4.4
T3
X5.5016Y-1.887
X5.6Y-2.013
X5.6984Y-1.887
X3.5266Y-3.112
X3.625Y-3.238
X3.7234Y-3.112
X5.5016Y-3.112
X5.6Y-3.238
X5.6984Y-3.112
X3.5266Y-4.337
X3.625Y-4.463
X3.7234Y-4.337
X3.5266Y-1.887
X3.625Y-2.013
X3.7234Y-1.887
X5.5016Y-4.337
X5.6Y-4.463
X5.6984Y-4.337
T4
X3.5516Y-2.9
X3.65Y-2.9
X3.5516Y-1.675
X3.65Y-1.675
X5.5266Y-1.675
X5.625Y-1.675
X5.5266Y-4.125
X5.625Y-4.125
X5.5266Y-2.9
X5.625Y-2.9
X3.5516Y-4.125
X3.65Y-4.125
T2
G00X5.1955Y-2.8299
M15
G01X5.1719Y-2.8299
M16
G05
G00X5.1955Y-3.1701
M15
G01X5.1719Y-3.1701
M16
G05
G00X5.3699Y-2.8299
M15
G01X5.3266Y-2.8299
M16
G05
G00X5.3699Y-3.1701
M15
G01X5.3266Y-3.1701
M16
G05
G00X3.2205Y-4.0549
M15
G01X3.1969Y-4.0549
M16
G05
G00X3.2205Y-4.3951
M15
G01X3.1969Y-4.3951
M16
G05
G00X3.3949Y-4.0549
M15
G01X3.3516Y-4.0549
M16
G05
G00X3.3949Y-4.3951
M15
G01X3.3516Y-4.3951
M16
G05
G00X3.2205Y-1.6049
M15
G01X3.1969Y-1.6049
M16
G05
G00X3.2205Y-1.9451
M15
G01X3.1969Y-1.9451
M16
G05
G00X3.3949Y-1.6049
M15
G01X3.3516Y-1.6049
M16
G05
G00X3.3949Y-1.9451
M15
G01X3.3516Y-1.9451
M16
G05
G00X5.1955Y-4.0549
M15
G01X5.1719Y-4.0549
M16
G05
G00X5.1955Y-4.3951
M15
G01X5.1719Y-4.3951
M16
G05
G00X5.3699Y-4.0549
M15
G01X5.3266Y-4.0549
M16
G05
G00X5.3699Y-4.3951
M15
G01X5.3266Y-4.3951
M16
G05
G00X5.1955Y-1.6049
M15
G01X5.1719Y-1.6049
M16
G05
G00X5.1955Y-1.9451
M15
G01X5.1719Y-1.9451
M16
G05
G00X5.3699Y-1.6049
M15
G01X5.3266Y-1.6049
M16
G05
G00X5.3699Y-1.9451
M15
G01X5.3266Y-1.9451
M16
G05
G00X3.2205Y-2.8299
M15
G01X3.1969Y-2.8299
M16
G05
G00X3.2205Y-3.1701
M15
G01X3.1969Y-3.1701
M16
G05
G00X3.3949Y-2.8299
M15
G01X3.3516Y-2.8299
M16
G05
G00X3.3949Y-3.1701
M15
G01X3.3516Y-3.1701
M16
G05
T0
M30
