M48
; DRILL file {KiCad (5.1.4)-1} date 2021/12/17 0:30:16
; FORMAT={-:-/ absolute / inch / decimal}
; #@! TF.CreationDate,2021-12-17T00:30:16+09:00
; #@! TF.GenerationSoftware,Kicad,Pcbnew,(5.1.4)-1
; #@! TF.FileFunction,NonPlated,1,2,NPTH
FMAT,2
INCH
T1C0.0256
T2C0.0295
%
G90
G05
T1
X5.3274Y-1.6612
X5.3274Y-1.8888
X3.3524Y-2.8862
X3.3524Y-3.1138
X5.3274Y-2.8862
X5.3274Y-3.1138
X3.3524Y-4.1112
X3.3524Y-4.3388
X3.3524Y-1.6612
X3.3524Y-1.8888
X5.3274Y-4.1112
X5.3274Y-4.3388
T2
X5.1146Y-3.85
X5.1854Y-3.85
X5.1146Y-1.4
X5.1854Y-1.4
X5.1146Y-2.625
X5.1854Y-2.625
X3.1396Y-1.4
X3.2104Y-1.4
X3.1396Y-2.625
X3.2104Y-2.625
X3.1396Y-3.85
X3.2104Y-3.85
T0
M30
